<svg xmlns="http://www.w3.org/2000/svg" viewBox="0 0 504.12 206.9" transform="matrix(1, 0, 0, 1, 0, 0)"><path d="M157.76,0V45.62q.78.38,1.5.81l.46-.27c.28-.15.56-.3.85-.44V0Z" fill="#000000"/><path d="M163.37,0V44.56c.31-.11.62-.21.94-.29a17.64,17.64,0,0,1,1.86-.4V0Z" fill="#000000"/><path d="M169,0V43.63a19.92,19.92,0,0,1,2.8.12V0Z" fill="#000000"/><path d="M137.08,0V44.15l1.14.07a11.3,11.3,0,0,1,1.66.3V0Z" fill="#000000"/><path d="M179.32,0V46.31a18.65,18.65,0,0,1,2.8,2.08V0Z" fill="#000000"/><path d="M142.68,0V44.69a20.05,20.05,0,0,1,7.54-1V0Z" fill="#000000"/><path d="M237.51,0V45.6a11.74,11.74,0,0,1,1.18-.58,11.37,11.37,0,0,1,1.62-.52V0Z" fill="#000000"/><path d="M184.92,0V48.87a17,17,0,0,1,2.8-1.84V0Z" fill="#000000"/><path d="M121.13,0V46.07a22.29,22.29,0,0,1,2.8,1.64V0Z" fill="#000000"/><path d="M227.16,0V44.37a12.72,12.72,0,0,1,1.5.34l2.15.64,2.1,1.87a10.24,10.24,0,0,1,1.2,1.42l.16-.28.44-.46V0Z" fill="#000000"/><path d="M221.56,0V44.19c.83,0,1.87-.06,2.8,0V0Z" fill="#000000"/><path d="M195.27,0V44.35l1-.23c.59-.11,1.17-.2,1.76-.27V0Z" fill="#000000"/><path d="M205.61,0V43.87a26.24,26.24,0,0,1,2.8.52V0Z" fill="#000000"/><path d="M211.21,0V45.27A19.72,19.72,0,0,1,214.54,47a8.82,8.82,0,0,1,1.16-.94,10.52,10.52,0,0,1,3.06-1.4V0Z" fill="#000000"/><path d="M36.64,0V33.86a9.47,9.47,0,0,1,2.8-2.94V0Z" fill="#000000"/><path d="M47.85,0V29c.62,0,1.2.05,1.65.11a11.65,11.65,0,0,1,3.38.91L55.24,31l.15.2V0Z" fill="#000000"/><rect x="10.34" width="2.8" height="206.9" fill="#000000"/><rect width="2.8" height="206.9" fill="#000000"/><path d="M58.19,0V35.72A9.76,9.76,0,0,1,58.76,39v9.51A24.42,24.42,0,0,1,61,46.93V0Z" fill="#000000"/><path d="M42.24,0V29.57a12.46,12.46,0,0,1,2.24-.5l.57-.05V0Z" fill="#000000"/><path d="M100.44,0V45.15a24,24,0,0,1,2.8-.8V0Z" fill="#000000"/><path d="M110.78,0V43.67c.94,0,1.88.11,2.8.22V0Z" fill="#000000"/><path d="M94.83,0V48.07a23.18,23.18,0,0,1,2.8-1.7V0Z" fill="#000000"/><path d="M74.14,0V43.66A25.31,25.31,0,0,1,81.69,45V0Z" fill="#000000"/><path d="M63.79,0V45.51a21.61,21.61,0,0,1,2.81-1V0Z" fill="#000000"/><path d="M84.49,0V46.21a21.47,21.47,0,0,1,2.8,1.73V0Z" fill="#000000"/><path d="M263.8,0V96l.19.08a18.59,18.59,0,0,1,2.61,1.6V0Z" fill="#000000"/><path d="M247.85,0V44.38a11.36,11.36,0,0,1,2.81.86V0Z" fill="#000000"/><path d="M396.14,0V95.37c.18.07.36.13.53.21a19,19,0,0,1,2.27-.77V0Z" fill="#000000"/><path d="M374.59,0V81.69l.38,0a17.1,17.1,0,0,1,2.42.18V0Z" fill="#000000"/><path d="M390.53,0V94.59c1,0,2,0,2.69.08h.12V0Z" fill="#000000"/><path d="M364.24,0V87.1A10.29,10.29,0,0,1,366,84.87a8.38,8.38,0,0,1,1-.86V0Z" fill="#000000"/><path d="M348.29,0V94.62c.83,0,1.89-.05,2.8,0V0Z" fill="#000000"/><path d="M353.89,0V95c.31.09.62.17.92.28a13.19,13.19,0,0,1,1.89-.65V0Z" fill="#000000"/><path d="M438.38,0V94.22c.6,0,1.2.09,1.76.16.36,0,.7.1,1,.15V0Z" fill="#000000"/><path d="M338,0V97.9a22.76,22.76,0,0,1,1.9,1.46,10.43,10.43,0,0,1,.9-1.2V0Z" fill="#000000"/><path d="M432.78,0V94.44a26.44,26.44,0,0,1,2.8-.24V0Z" fill="#000000"/><path d="M448.72,0V94.74h2.07c.25,0,.49,0,.74.06V0Z" fill="#000000"/><path d="M406.48,0V94.16a19.7,19.7,0,0,1,2.8.46V0Z" fill="#000000"/><path d="M422.43,0V98.85a19.62,19.62,0,0,1,2.81-1.92V0Z" fill="#000000"/><path d="M412.08,0V95.49c.45.18.89.37,1.31.58a18.28,18.28,0,0,1,6.24,5V0Z" fill="#000000"/><path d="M380.18,0V82.55a10.82,10.82,0,0,1,3.7,2.29,12.1,12.1,0,0,1,3.5,9.14c0,.33,0,.63-.05,1l.4-.08V0Z" fill="#000000"/><path d="M279.75,0V96a22,22,0,0,1,2.8-1V0Z" fill="#000000"/><rect x="15.95" width="2.8" height="206.9" fill="#000000"/><path d="M269.41,0V100.11a18.58,18.58,0,0,1,1.21,1.45c.21.27.38.56.57.84.17-.21.32-.44.5-.64l.52-.56V0Z" fill="#000000"/><path d="M253.46,0V47.23a9.37,9.37,0,0,1,2.67,7.55,11,11,0,0,1-1.58,4.56l-1.09,1.74V77.56L255,80a13,13,0,0,1,1.27,2.93V0Z" fill="#000000"/><polygon points="248.29 69.3 250.66 73.09 250.66 65.53 248.29 69.3" fill="#000000"/><path d="M316.39,0V95.48a25.85,25.85,0,0,1,2.81-.78V0Z" fill="#000000"/><path d="M322,0V94.25a26.45,26.45,0,0,1,2.81-.15V0Z" fill="#000000"/><path d="M306.05,0V100.93c.22.24.46.46.67.71.08.1.15.22.24.32l.15-.2a22,22,0,0,1,6.48-5.06V0Z" fill="#000000"/><path d="M290.1,0V94.11a26,26,0,0,1,2.8.21V0Z" fill="#000000"/><path d="M332.34,0V95.17a18.15,18.15,0,0,1,2.41.9l.4.2V0Z" fill="#000000"/><path d="M295.7,0V94.83a20.86,20.86,0,0,1,7.55,3.55V0Z" fill="#000000"/><path d="M126.73,0V47.91A9.85,9.85,0,0,1,130,45.32a11.24,11.24,0,0,1,3.83-1.09l.47,0V0Z" fill="#000000"/><path d="M349.54,192.56c-.46,0-.87,0-1.25,0V206.9h2.8V192.49C350.63,192.53,350.13,192.56,349.54,192.56Z" fill="#000000"/><path d="M355.44,191.27c-.2.1-.39.22-.59.31a10,10,0,0,1-1,.36v15h2.81V191.76Z" fill="#000000"/><path d="M392.77,192.38a18.11,18.11,0,0,1-2.24.16V206.9h2.81V192.28Z" fill="#000000"/><path d="M385.47,191.79l-2.72-1-.95-1.28c-.52.37-1.06.72-1.62,1V206.9h7.55V192.36A12.43,12.43,0,0,1,385.47,191.79Z" fill="#000000"/><path d="M332.34,192.46V206.9h2.81V192.53A21.33,21.33,0,0,1,332.34,192.46Z" fill="#000000"/><rect x="26.29" width="2.8" height="206.9" fill="#000000"/><path d="M367,192.46c-.54-.14-1.06-.28-1.58-.46a9.36,9.36,0,0,1-1.16.29V206.9H367V192.47Z" fill="#000000"/><path d="M339.47,191.63a9.69,9.69,0,0,1-1.52.51V206.9h2.8V191A9.72,9.72,0,0,1,339.47,191.63Z" fill="#000000"/><path d="M324.35,191.58a10.63,10.63,0,0,1-2.36.73V206.9h2.81V191.35Z" fill="#000000"/><path d="M301.77,192.65a30,30,0,0,1-3.64.22c-.83,0-1.63,0-2.43-.1V206.9h7.55V192.42C302.75,192.51,302.26,192.59,301.77,192.65Z" fill="#000000"/><path d="M279.75,185.7v21.2h2.8V188.12A23,23,0,0,1,279.75,185.7Z" fill="#000000"/><path d="M290.1,191.79V206.9h2.8V192.43A27.83,27.83,0,0,1,290.1,191.79Z" fill="#000000"/><path d="M316.86,192.44c-.16,0-.31-.07-.47-.09V206.9h2.81V192.54A20.28,20.28,0,0,1,316.86,192.44Z" fill="#000000"/><path d="M311.27,190.55l-.33-.47c-.58.27-1.28.56-2.09.86s-1.85.62-2.8.87V206.9h7.54V191.54Z" fill="#000000"/><path d="M414.71,191.88a12.33,12.33,0,0,1-2.12.5c-.16,0-.34,0-.51.06V206.9h7.55V188.19A9.51,9.51,0,0,1,414.71,191.88Z" fill="#000000"/><rect x="480.62" width="7.54" height="206.9" fill="#000000"/><path d="M459.07,0V99.29c.18.28.36.55.52.85a12.47,12.47,0,0,1,1.28,5.83,11.94,11.94,0,0,1-1.64,6.41l-.16.23v19.17a16.75,16.75,0,0,1,1.45,6.9,18.37,18.37,0,0,1-1.45,7.14V206.9h2.81V0Z" fill="#000000"/><rect x="464.67" width="2.8" height="206.9" fill="#000000"/><rect x="475.02" width="2.8" height="206.9" fill="#000000"/><rect x="496.57" width="7.54" height="206.9" fill="#000000"/><rect x="490.97" width="2.8" height="206.9" fill="#000000"/><path d="M448.72,156V206.9h2.81V154.53A21.17,21.17,0,0,1,448.72,156Z" fill="#000000"/><path d="M269.41,144.54V206.9h2.8V142.5A10,10,0,0,1,269.41,144.54Z" fill="#000000"/><path d="M422.43,155.4v51.5h2.81V156.6A21.78,21.78,0,0,1,422.43,155.4Z" fill="#000000"/><path d="M407.69,192.38c-.45-.07-.85-.15-1.21-.24V206.9h2.8V192.54A14.37,14.37,0,0,1,407.69,192.38Z" fill="#000000"/><path d="M396.14,191.36V206.9h2.8V189.29A9.57,9.57,0,0,1,396.14,191.36Z" fill="#000000"/><path d="M432.78,158.14V206.9h2.8V158.27C434.6,158.25,433.67,158.21,432.78,158.14Z" fill="#000000"/><path d="M438.38,158.23V206.9h2.8V158C440.28,158.11,439.34,158.18,438.38,158.23Z" fill="#000000"/><path d="M374.59,192.58V206.9h2.8V191.85A19.83,19.83,0,0,1,374.59,192.58Z" fill="#000000"/><path d="M100.44,94.53V206.9h2.8V95.26A24.41,24.41,0,0,1,100.44,94.53Z" fill="#000000"/><path d="M84.49,94.28V206.9h2.8V93.3A26.91,26.91,0,0,1,84.49,94.28Z" fill="#000000"/><path d="M111.75,139.16c-.34-.37-.65-.77-1-1.17V206.9h2.8v-66A21.42,21.42,0,0,1,111.75,139.16Z" fill="#000000"/><path d="M148.89,144.83l-2.57-1.07-.85-1.17a16.86,16.86,0,0,1-1.75.92l-1,.44v63h7.54V145.28A9.45,9.45,0,0,1,148.89,144.83Z" fill="#000000"/><path d="M137.08,145.53V206.9h2.8v-62C139,145.11,138.1,145.32,137.08,145.53Z" fill="#000000"/><path d="M121.13,145V206.9h2.8V145.68A24.39,24.39,0,0,1,121.13,145Z" fill="#000000"/><path d="M129.9,146.26c-1.09,0-2.14-.07-3.17-.16v60.8h7.54V146A34.41,34.41,0,0,1,129.9,146.26Z" fill="#000000"/><path d="M94.83,91.83V206.9h2.8V93.43A22,22,0,0,1,94.83,91.83Z" fill="#000000"/><path d="M52.88,94.32a12,12,0,0,1-3.38.91c-.46,0-1,.1-1.65.12V206.9h7.54V92.72A10,10,0,0,1,52.88,94.32Z" fill="#000000"/><path d="M44.48,95.23a12.46,12.46,0,0,1-2.24-.51V206.9h2.81V95.28Z" fill="#000000"/><path d="M38.68,93.31l-2-2.68-.09-.17V206.9h2.8V93.63Z" fill="#000000"/><path d="M58.19,90.82V206.9H61V92.7A20.44,20.44,0,0,1,58.19,90.82Z" fill="#000000"/><path d="M64.16,94.18c-.13,0-.24-.1-.37-.15V206.9H66.6v-112A23.1,23.1,0,0,1,64.16,94.18Z" fill="#000000"/><path d="M79.68,95.36a32.88,32.88,0,0,1-5.54.45V206.9h7.55V95C81.05,95.11,80.39,95.24,79.68,95.36Z" fill="#000000"/><path d="M239.37,145.67a13,13,0,0,1-1.86-.37v61.6h2.8V145.75Z" fill="#000000"/><path d="M233.58,143.76l-.14-.19a10.3,10.3,0,0,1-2,1.2,12.07,12.07,0,0,1-3.38.9l-.9.08V206.9h7.55V144.23Z" fill="#000000"/><path d="M265.6,145.67c-.5.06-1.1.11-1.8.13v61.1h2.8V145.51C266.28,145.57,266,145.63,265.6,145.67Z" fill="#000000"/><path d="M223,145.67c-.19,0-.35-.07-.53-.1-.12.32-.23.65-.38,1s-.38.71-.57,1.06V206.9h2.8V145.78C223.87,145.76,223.42,145.72,223,145.67Z" fill="#000000"/><polygon points="255.02 143.8 253.46 141.9 253.46 206.9 256.26 206.9 256.26 144.35 255.02 143.8" fill="#000000"/><path d="M247.85,144.72V206.9h2.81V142.82A9.74,9.74,0,0,1,247.85,144.72Z" fill="#000000"/><path d="M160.52,144.77a11.53,11.53,0,0,1-2.76.8V206.9h2.81V144.74Z" fill="#000000"/><path d="M216.83,153.18a21.24,21.24,0,0,1-5.62,3.16V206.9h7.55V151.4A19.29,19.29,0,0,1,216.83,153.18Z" fill="#000000"/><path d="M170,144.77l-1-.44V206.9h2.8V145.38A11.43,11.43,0,0,1,170,144.77Z" fill="#000000"/><path d="M165.91,141.54a8.93,8.93,0,0,1-.66-1.06l-.69,1.06a9.93,9.93,0,0,1-1.19,1.32v64h2.8V141.85Z" fill="#000000"/><path d="M179.32,149.73V206.9h2.8V153A15.31,15.31,0,0,1,179.32,149.73Z" fill="#000000"/><path d="M205.61,157.83V206.9h2.8V157.24C207.52,157.47,206.58,157.67,205.61,157.83Z" fill="#000000"/><path d="M195.27,158.07V206.9h2.8V158.25C197.1,158.22,196.16,158.17,195.27,158.07Z" fill="#000000"/><path d="M184.92,155v52h2.8V156.3A21.33,21.33,0,0,1,184.92,155Z" fill="#000000"/><path d="M143,118.83a2.42,2.42,0,0,1-.68,1.93,2.34,2.34,0,0,1-1.55.57H120.2a19.29,19.29,0,0,0,.53,4.7,9,9,0,0,0,1.74,3.58,8,8,0,0,0,3.18,2.29,12.53,12.53,0,0,0,4.79.8,19.79,19.79,0,0,0,4-.36,25.12,25.12,0,0,0,3-.82c.85-.3,1.55-.57,2.1-.82a3.43,3.43,0,0,1,1.24-.36.77.77,0,0,1,.73.48,2.84,2.84,0,0,1,.16.68,10.47,10.47,0,0,1,.05,1.06q0,.45,0,.78t-.09.6a1.34,1.34,0,0,1-.18.46,1.66,1.66,0,0,1-.31.4,4.92,4.92,0,0,1-1.13.63,16.23,16.23,0,0,1-2.43.85,33.51,33.51,0,0,1-3.46.75,25.33,25.33,0,0,1-4.19.33,19.33,19.33,0,0,1-6.76-1.08,12.44,12.44,0,0,1-4.88-3.2,13.46,13.46,0,0,1-3-5.32,24.5,24.5,0,0,1-1-7.43,23.29,23.29,0,0,1,1-7.25,15.42,15.42,0,0,1,3-5.46,13.22,13.22,0,0,1,4.74-3.44,15.58,15.58,0,0,1,6.22-1.2,15,15,0,0,1,6.28,1.18,11.87,11.87,0,0,1,4.26,3.18,12.78,12.78,0,0,1,2.45,4.7,20.54,20.54,0,0,1,.78,5.75Zm-5.77-1.7a10.44,10.44,0,0,0-2-7.09,7.66,7.66,0,0,0-6.28-2.58,8.34,8.34,0,0,0-3.74.8,8.21,8.21,0,0,0-2.7,2.12,9.74,9.74,0,0,0-1.67,3.08,12.81,12.81,0,0,0-.67,3.67Z" fill="#000000"/><path d="M178.71,135.83a.79.79,0,0,1-.14.47,1.12,1.12,0,0,1-.46.33,3.26,3.26,0,0,1-.86.21,13.06,13.06,0,0,1-1.39.07,13.45,13.45,0,0,1-1.43-.07,3.46,3.46,0,0,1-.87-.21,1,1,0,0,1-.45-.33.79.79,0,0,1-.14-.47V117.51a17.92,17.92,0,0,0-.42-4.31,8.84,8.84,0,0,0-1.21-2.82,5.36,5.36,0,0,0-2.07-1.8,6.55,6.55,0,0,0-2.94-.63,7.41,7.41,0,0,0-4.31,1.53A23.35,23.35,0,0,0,157.5,114v21.87a.73.73,0,0,1-.14.47,1,1,0,0,1-.45.33,3.46,3.46,0,0,1-.87.21,13.25,13.25,0,0,1-1.42.07,12.92,12.92,0,0,1-1.39-.07,3.64,3.64,0,0,1-.89-.21.91.91,0,0,1-.45-.33.87.87,0,0,1-.13-.47V104.54a1,1,0,0,1,.11-.47.94.94,0,0,1,.42-.34,2.12,2.12,0,0,1,.8-.21,11.2,11.2,0,0,1,1.28,0,11.33,11.33,0,0,1,1.27,0,1.82,1.82,0,0,1,.78.21,1.07,1.07,0,0,1,.4.34.89.89,0,0,1,.13.47v4.14a19.28,19.28,0,0,1,5.26-4.33,11.4,11.4,0,0,1,5.3-1.37,11.76,11.76,0,0,1,5.27,1.06,9.57,9.57,0,0,1,3.46,2.83,11.32,11.32,0,0,1,1.89,4.16,24.76,24.76,0,0,1,.58,5.72Z" fill="#000000"/><path d="M215.31,106a3.49,3.49,0,0,1-.33,1.75,1,1,0,0,1-.85.54h-4.48a7.16,7.16,0,0,1,1.7,2.77,10.3,10.3,0,0,1,.48,3.14A12.57,12.57,0,0,1,211,119a9.6,9.6,0,0,1-2.49,3.53,11.2,11.2,0,0,1-3.84,2.21,15.11,15.11,0,0,1-4.94.76,13.1,13.1,0,0,1-3.63-.5,7.67,7.67,0,0,1-2.66-1.27,5.13,5.13,0,0,0-1,1.42A4.06,4.06,0,0,0,192,127a2.39,2.39,0,0,0,1.13,2,5.47,5.47,0,0,0,3,.87l8.17.35a17.23,17.23,0,0,1,4.28.64,10.48,10.48,0,0,1,3.37,1.64,7.4,7.4,0,0,1,2.22,2.6,7.64,7.64,0,0,1,.8,3.6,9.65,9.65,0,0,1-.9,4.1,9.45,9.45,0,0,1-2.76,3.43,14.05,14.05,0,0,1-4.75,2.33,24.45,24.45,0,0,1-6.81.85,27.7,27.7,0,0,1-6.45-.65,14,14,0,0,1-4.36-1.75,6.78,6.78,0,0,1-2.47-2.66,7.47,7.47,0,0,1-.77-3.36,9.12,9.12,0,0,1,.28-2.22,8.15,8.15,0,0,1,.85-2.05,10.26,10.26,0,0,1,1.43-1.86,19.11,19.11,0,0,1,2-1.76,6.15,6.15,0,0,1-2.52-2.19,5.36,5.36,0,0,1-.82-2.85,8.23,8.23,0,0,1,.87-3.79,12.35,12.35,0,0,1,2.16-3,10.3,10.3,0,0,1-1.7-2.91,10.79,10.79,0,0,1-.63-3.91,12,12,0,0,1,.91-4.8,10.18,10.18,0,0,1,2.5-3.58,10.9,10.9,0,0,1,3.84-2.24,14.73,14.73,0,0,1,4.88-.78,20.12,20.12,0,0,1,2.66.16,16.67,16.67,0,0,1,2.31.43h9.46a1,1,0,0,1,.89.57A4.15,4.15,0,0,1,215.31,106Zm-6.08,33a3.52,3.52,0,0,0-1.65-3.11,8.32,8.32,0,0,0-4.47-1.16l-8.1-.28a15.57,15.57,0,0,0-1.83,1.65,9.2,9.2,0,0,0-1.13,1.5,5,5,0,0,0-.57,1.4,6.81,6.81,0,0,0-.15,1.43,3.67,3.67,0,0,0,2.29,3.42A14.31,14.31,0,0,0,200,145a15.9,15.9,0,0,0,4.36-.51,8.19,8.19,0,0,0,2.83-1.34,4.81,4.81,0,0,0,1.55-1.91A5.65,5.65,0,0,0,209.23,139Zm-2.89-24.78a6.82,6.82,0,0,0-1.75-5,6.7,6.7,0,0,0-5-1.79,7,7,0,0,0-2.9.55,5.69,5.69,0,0,0-2,1.54,6.33,6.33,0,0,0-1.22,2.24,8.65,8.65,0,0,0-.4,2.66,6.12,6.12,0,0,0,6.67,6.64,7.45,7.45,0,0,0,3-.54,5.64,5.64,0,0,0,2.07-1.5,6.37,6.37,0,0,0,1.21-2.2A8.47,8.47,0,0,0,206.34,114.21Z" fill="#000000"/><path d="M229.08,94a3.75,3.75,0,0,1-.77,2.74,4.09,4.09,0,0,1-2.81.73,4,4,0,0,1-2.77-.71,3.73,3.73,0,0,1-.74-2.69,3.78,3.78,0,0,1,.76-2.75,5.77,5.77,0,0,1,5.58,0A3.72,3.72,0,0,1,229.08,94Zm-.66,41.85a.79.79,0,0,1-.14.47,1.15,1.15,0,0,1-.45.33,3.46,3.46,0,0,1-.87.21,13.6,13.6,0,0,1-1.43.07,12.92,12.92,0,0,1-1.39-.07,3.89,3.89,0,0,1-.89-.21.91.91,0,0,1-.45-.33.86.86,0,0,1-.12-.47V104.54a.89.89,0,0,1,.12-.45.93.93,0,0,1,.45-.35,3.47,3.47,0,0,1,.89-.2,10.75,10.75,0,0,1,1.39-.07,11.33,11.33,0,0,1,1.43.07,3.11,3.11,0,0,1,.87.2,1.18,1.18,0,0,1,.45.35.82.82,0,0,1,.14.45Z" fill="#000000"/><path d="M266,135.83a.79.79,0,0,1-.14.47,1,1,0,0,1-.45.33,3.46,3.46,0,0,1-.87.21,12.92,12.92,0,0,1-1.39.07,13.45,13.45,0,0,1-1.43-.07,3.46,3.46,0,0,1-.87-.21,1.08,1.08,0,0,1-.45-.33.79.79,0,0,1-.14-.47V117.51a18.52,18.52,0,0,0-.41-4.31,9.08,9.08,0,0,0-1.22-2.82,5.22,5.22,0,0,0-2.07-1.8,6.52,6.52,0,0,0-2.94-.63,7.44,7.44,0,0,0-4.31,1.53,23.35,23.35,0,0,0-4.52,4.48v21.87a.79.79,0,0,1-.13.47,1.12,1.12,0,0,1-.46.33,3.24,3.24,0,0,1-.87.21,13.25,13.25,0,0,1-1.42.07,12.92,12.92,0,0,1-1.39-.07,3.76,3.76,0,0,1-.89-.21.91.91,0,0,1-.45-.33.86.86,0,0,1-.12-.47V104.54a1,1,0,0,1,.1-.47.94.94,0,0,1,.42-.34,2.17,2.17,0,0,1,.8-.21,16.28,16.28,0,0,1,2.55,0,1.92,1.92,0,0,1,.79.21,1.15,1.15,0,0,1,.4.34.89.89,0,0,1,.12.47v4.14a19.28,19.28,0,0,1,5.26-4.33,11.41,11.41,0,0,1,5.31-1.37A11.71,11.71,0,0,1,260,104a9.48,9.48,0,0,1,3.46,2.83,11.5,11.5,0,0,1,1.9,4.16,24.81,24.81,0,0,1,.57,5.72Z" fill="#000000"/><path d="M303.12,118.83a2.42,2.42,0,0,1-.68,1.93,2.37,2.37,0,0,1-1.56.57h-20.6a19.29,19.29,0,0,0,.53,4.7,9,9,0,0,0,1.74,3.58,7.88,7.88,0,0,0,3.18,2.29,12.53,12.53,0,0,0,4.79.8,19.86,19.86,0,0,0,4-.36,25.12,25.12,0,0,0,3-.82c.85-.3,1.55-.57,2.09-.82a3.54,3.54,0,0,1,1.24-.36.78.78,0,0,1,.44.12.77.77,0,0,1,.3.36,2.84,2.84,0,0,1,.16.68,10.47,10.47,0,0,1,.05,1.06,5.94,5.94,0,0,1,0,.78c0,.22-.05.42-.08.6a1.58,1.58,0,0,1-.18.46,1.66,1.66,0,0,1-.31.4,4.92,4.92,0,0,1-1.13.63,16.23,16.23,0,0,1-2.43.85,33.51,33.51,0,0,1-3.46.75,25.33,25.33,0,0,1-4.19.33,19.33,19.33,0,0,1-6.76-1.08,12.47,12.47,0,0,1-4.89-3.2,13.71,13.71,0,0,1-3-5.32,24.82,24.82,0,0,1-1-7.43,23.28,23.28,0,0,1,1.05-7.25,15.42,15.42,0,0,1,3-5.46,13.22,13.22,0,0,1,4.74-3.44,15.58,15.58,0,0,1,6.22-1.2,15,15,0,0,1,6.28,1.18,11.87,11.87,0,0,1,4.26,3.18,12.78,12.78,0,0,1,2.45,4.7,20.54,20.54,0,0,1,.78,5.75Zm-5.77-1.7a10.44,10.44,0,0,0-2-7.09,7.66,7.66,0,0,0-6.28-2.58,8.34,8.34,0,0,0-3.74.8,8.21,8.21,0,0,0-2.7,2.12,9.74,9.74,0,0,0-1.67,3.08,12.81,12.81,0,0,0-.67,3.67Z" fill="#000000"/><path d="M338.54,118.83a2.17,2.17,0,0,1-2.24,2.5H315.7a19.29,19.29,0,0,0,.53,4.7,9.14,9.14,0,0,0,1.74,3.58,8,8,0,0,0,3.18,2.29,12.56,12.56,0,0,0,4.79.8,19.79,19.79,0,0,0,4-.36,24.61,24.61,0,0,0,3-.82c.85-.3,1.55-.57,2.1-.82a3.43,3.43,0,0,1,1.24-.36.77.77,0,0,1,.73.48,2.43,2.43,0,0,1,.16.68,8.18,8.18,0,0,1,.05,1.06,5.94,5.94,0,0,1,0,.78,4.86,4.86,0,0,1-.08.6,1.33,1.33,0,0,1-.17.46,2,2,0,0,1-.31.4,5.09,5.09,0,0,1-1.14.63,17.08,17.08,0,0,1-2.43.85,33.51,33.51,0,0,1-3.46.75,25.33,25.33,0,0,1-4.19.33,19.37,19.37,0,0,1-6.76-1.08,12.51,12.51,0,0,1-4.88-3.2,13.58,13.58,0,0,1-3-5.32,24.82,24.82,0,0,1-1-7.43,23.59,23.59,0,0,1,1-7.25,15.42,15.42,0,0,1,3-5.46,13.22,13.22,0,0,1,4.74-3.44,15.58,15.58,0,0,1,6.22-1.2,15,15,0,0,1,6.28,1.18,11.87,11.87,0,0,1,4.26,3.18,12.78,12.78,0,0,1,2.45,4.7,20.18,20.18,0,0,1,.78,5.75Zm-5.77-1.7a10.44,10.44,0,0,0-2-7.09,7.66,7.66,0,0,0-6.28-2.58,8.34,8.34,0,0,0-3.74.8,8.07,8.07,0,0,0-2.69,2.12,9.56,9.56,0,0,0-1.68,3.08,12.81,12.81,0,0,0-.67,3.67Z" fill="#000000"/><path d="M365.55,106.59c0,.51,0,.94,0,1.29a3.6,3.6,0,0,1-.13.82,1.19,1.19,0,0,1-.26.45.61.61,0,0,1-.44.16,2,2,0,0,1-.67-.16c-.27-.1-.57-.21-.91-.31a10.72,10.72,0,0,0-1.13-.3,6.45,6.45,0,0,0-1.36-.14,4.42,4.42,0,0,0-1.7.35,6.47,6.47,0,0,0-1.75,1.15,14.27,14.27,0,0,0-1.93,2.12c-.68.88-1.42,2-2.23,3.23v20.58a.79.79,0,0,1-.14.47,1,1,0,0,1-.45.33,3.46,3.46,0,0,1-.87.21,13.39,13.39,0,0,1-1.42.07,12.92,12.92,0,0,1-1.39-.07,3.44,3.44,0,0,1-.88-.21.9.9,0,0,1-.46-.33.87.87,0,0,1-.13-.47V104.54a1,1,0,0,1,.11-.47.94.94,0,0,1,.42-.34,2.12,2.12,0,0,1,.8-.21,11.2,11.2,0,0,1,1.28,0,11.63,11.63,0,0,1,1.28,0,1.82,1.82,0,0,1,.77.21,1.11,1.11,0,0,1,.41.34.88.88,0,0,1,.11.47v4.56a24.38,24.38,0,0,1,2.43-3.06,13.06,13.06,0,0,1,2.13-1.86,6.57,6.57,0,0,1,2-.94,7.94,7.94,0,0,1,2-.26c.31,0,.66,0,1,0a11.24,11.24,0,0,1,1.19.19,11.42,11.42,0,0,1,1.14.32,2.38,2.38,0,0,1,.7.34,1.11,1.11,0,0,1,.28.33,2.35,2.35,0,0,1,.13.4,4.8,4.8,0,0,1,.07.72C365.55,105.64,365.55,106.06,365.55,106.59Z" fill="#000000"/><path d="M378.48,94a3.76,3.76,0,0,1-.76,2.74,4.1,4.1,0,0,1-2.82.73,4,4,0,0,1-2.76-.71,3.68,3.68,0,0,1-.75-2.69,3.74,3.74,0,0,1,.77-2.75,5.77,5.77,0,0,1,5.58,0A3.73,3.73,0,0,1,378.48,94Zm-.66,41.85a.79.79,0,0,1-.14.47,1,1,0,0,1-.45.33,3.46,3.46,0,0,1-.87.21,14.23,14.23,0,0,1-2.82,0,3.67,3.67,0,0,1-.88-.21.91.91,0,0,1-.45-.33.87.87,0,0,1-.13-.47V104.54a.9.9,0,0,1,.13-.45.93.93,0,0,1,.45-.35,3.28,3.28,0,0,1,.88-.2,11,11,0,0,1,1.39-.07,11.12,11.12,0,0,1,1.43.07,3.11,3.11,0,0,1,.87.2,1,1,0,0,1,.45.35.82.82,0,0,1,.14.45Z" fill="#000000"/><path d="M415.36,135.83a.73.73,0,0,1-.14.47,1,1,0,0,1-.45.33,3.35,3.35,0,0,1-.87.21,12.92,12.92,0,0,1-1.39.07,13.25,13.25,0,0,1-1.42-.07,3.46,3.46,0,0,1-.87-.21,1,1,0,0,1-.45-.33.73.73,0,0,1-.14-.47V117.51a17.92,17.92,0,0,0-.42-4.31,8.85,8.85,0,0,0-1.22-2.82,5.19,5.19,0,0,0-2.06-1.8A6.52,6.52,0,0,0,403,108a7.39,7.39,0,0,0-4.31,1.53,23.35,23.35,0,0,0-4.52,4.48v21.87a.79.79,0,0,1-.14.47,1,1,0,0,1-.45.33,3.46,3.46,0,0,1-.87.21,13.45,13.45,0,0,1-1.43.07,13.06,13.06,0,0,1-1.39-.07,3.67,3.67,0,0,1-.88-.21.91.91,0,0,1-.45-.33.87.87,0,0,1-.13-.47V104.54a1,1,0,0,1,.11-.47,1,1,0,0,1,.41-.34,2.17,2.17,0,0,1,.8-.21,11.5,11.5,0,0,1,1.29,0,11.33,11.33,0,0,1,1.27,0,1.82,1.82,0,0,1,.78.21,1.11,1.11,0,0,1,.41.34.88.88,0,0,1,.11.47v4.14a19.31,19.31,0,0,1,5.27-4.33,11.43,11.43,0,0,1,5.3-1.37,11.76,11.76,0,0,1,5.27,1.06,9.57,9.57,0,0,1,3.46,2.83,11.49,11.49,0,0,1,1.89,4.16,24.27,24.27,0,0,1,.57,5.72Z" fill="#000000"/><path d="M452,106a3.38,3.38,0,0,1-.33,1.75,1,1,0,0,1-.85.54H446.3A7,7,0,0,1,448,111a10,10,0,0,1,.49,3.14,12.38,12.38,0,0,1-.87,4.8,9.57,9.57,0,0,1-2.48,3.53,11.07,11.07,0,0,1-3.85,2.21,15,15,0,0,1-4.93.76,13,13,0,0,1-3.63-.5,7.76,7.76,0,0,1-2.66-1.27,5.35,5.35,0,0,0-1,1.42,4.06,4.06,0,0,0-.41,1.85,2.37,2.37,0,0,0,1.14,2,5.41,5.41,0,0,0,3,.87l8.17.35a17.08,17.08,0,0,1,4.27.64,10.64,10.64,0,0,1,3.38,1.64,7.4,7.4,0,0,1,2.22,2.6,7.77,7.77,0,0,1,.8,3.6,9.65,9.65,0,0,1-.9,4.1,9.55,9.55,0,0,1-2.76,3.43,14.05,14.05,0,0,1-4.75,2.33,24.57,24.57,0,0,1-6.82.85,27.73,27.73,0,0,1-6.44-.65,14.17,14.17,0,0,1-4.37-1.75,6.82,6.82,0,0,1-2.46-2.66,7.47,7.47,0,0,1-.77-3.36,8.66,8.66,0,0,1,.28-2.22,7.83,7.83,0,0,1,.86-2.05,9.77,9.77,0,0,1,1.42-1.86,19.11,19.11,0,0,1,2-1.76,6,6,0,0,1-2.51-2.19,5.28,5.28,0,0,1-.83-2.85,8.11,8.11,0,0,1,.87-3.79,12.35,12.35,0,0,1,2.16-3,10.33,10.33,0,0,1-1.71-2.91,11,11,0,0,1-.62-3.91,12.22,12.22,0,0,1,.9-4.8,10.31,10.31,0,0,1,2.5-3.58,11.13,11.13,0,0,1,3.85-2.24,14.77,14.77,0,0,1,4.88-.78,20.39,20.39,0,0,1,2.67.16,17.09,17.09,0,0,1,2.3.43h9.46a1,1,0,0,1,.89.57A4.15,4.15,0,0,1,452,106Zm-6.09,33a3.51,3.51,0,0,0-1.64-3.11,8.35,8.35,0,0,0-4.47-1.16l-8.1-.28a14,14,0,0,0-1.82,1.65,8.76,8.76,0,0,0-1.14,1.5,4.66,4.66,0,0,0-.56,1.4,6.22,6.22,0,0,0-.17,1.43,3.68,3.68,0,0,0,2.3,3.42,14.29,14.29,0,0,0,6.39,1.17,15.93,15.93,0,0,0,4.37-.51,8.19,8.19,0,0,0,2.83-1.34,4.81,4.81,0,0,0,1.55-1.91A5.64,5.64,0,0,0,445.88,139ZM443,114.21a6.82,6.82,0,0,0-1.75-5,6.7,6.7,0,0,0-5-1.79,7,7,0,0,0-2.89.55,5.78,5.78,0,0,0-2.05,1.54,6.33,6.33,0,0,0-1.22,2.24,8.66,8.66,0,0,0-.41,2.66,6.14,6.14,0,0,0,6.68,6.64,7.45,7.45,0,0,0,3-.54,5.64,5.64,0,0,0,2.07-1.5,6.21,6.21,0,0,0,1.21-2.2A8.47,8.47,0,0,0,443,114.21Z" fill="#000000"/><path d="M309,154.35a5.89,5.89,0,0,1,0,.88,2.23,2.23,0,0,1-.16.62.65.65,0,0,1-.26.35.57.57,0,0,1-.33.11,2.41,2.41,0,0,1-1.05-.5,15.16,15.16,0,0,0-1.95-1.09,17.52,17.52,0,0,0-2.94-1.1,14.65,14.65,0,0,0-4-.5,11.87,11.87,0,0,0-5,1,10.92,10.92,0,0,0-3.75,2.82,12.55,12.55,0,0,0-2.36,4.27,18.38,18.38,0,0,0,.08,11.11,12.14,12.14,0,0,0,2.49,4.22,10.3,10.3,0,0,0,3.79,2.61,12.87,12.87,0,0,0,4.84.89,13.78,13.78,0,0,0,3.16-.38,11.43,11.43,0,0,0,3-1.14v-9.82h-7.82a.69.69,0,0,1-.66-.45,3,3,0,0,1-.23-1.38,6.82,6.82,0,0,1,.05-.85,1.66,1.66,0,0,1,.18-.57.75.75,0,0,1,.27-.33.67.67,0,0,1,.39-.1h10.71a1.58,1.58,0,0,1,1.1.42,1.27,1.27,0,0,1,.36.57,2.37,2.37,0,0,1,.14.83v12.86a2.66,2.66,0,0,1-.24,1.17,2.13,2.13,0,0,1-1,.88,20.24,20.24,0,0,1-2,.82,24.4,24.4,0,0,1-2.47.75,20.53,20.53,0,0,1-2.58.47,22.61,22.61,0,0,1-2.58.16,19.11,19.11,0,0,1-7-1.21,14.17,14.17,0,0,1-5.2-3.46,15.11,15.11,0,0,1-3.25-5.37,22.32,22.32,0,0,1,.1-14.26,15.82,15.82,0,0,1,3.41-5.56,15.47,15.47,0,0,1,5.29-3.56,18,18,0,0,1,6.84-1.26,18.2,18.2,0,0,1,3.63.34,22.81,22.81,0,0,1,3,.8,12.23,12.23,0,0,1,2.22,1,6.34,6.34,0,0,1,1.23.87,1.76,1.76,0,0,1,.47.78A4.69,4.69,0,0,1,309,154.35Z" fill="#000000"/><path d="M351.68,182.84a.69.69,0,0,1-.1.36.73.73,0,0,1-.35.24,1.86,1.86,0,0,1-.65.16,7.76,7.76,0,0,1-1,.05,8.07,8.07,0,0,1-1.07-.05,2,2,0,0,1-.66-.16.71.71,0,0,1-.36-.24.61.61,0,0,1-.1-.36V168.58a13.33,13.33,0,0,0-.26-2.71,6.25,6.25,0,0,0-.83-2.11,3.92,3.92,0,0,0-1.46-1.35,4.33,4.33,0,0,0-2.09-.47,4.92,4.92,0,0,0-3,1.14,20.8,20.8,0,0,0-3.3,3.37v16.39a.61.61,0,0,1-.1.36.73.73,0,0,1-.35.24,2.13,2.13,0,0,1-.66.16,10.84,10.84,0,0,1-2.08,0,2.12,2.12,0,0,1-.68-.16.65.65,0,0,1-.34-.24.69.69,0,0,1-.09-.36V168.58a12,12,0,0,0-.28-2.71,6.73,6.73,0,0,0-.87-2.11,3.82,3.82,0,0,0-1.45-1.35,4.15,4.15,0,0,0-2.06-.47,5,5,0,0,0-3,1.14,19.63,19.63,0,0,0-3.29,3.37v16.39a.61.61,0,0,1-.1.36.69.69,0,0,1-.34.24,1.92,1.92,0,0,1-.65.16,8.07,8.07,0,0,1-1.07.05,7.67,7.67,0,0,1-1-.05,2.12,2.12,0,0,1-.67-.16.61.61,0,0,1-.34-.24.69.69,0,0,1-.09-.36V159.38a.6.6,0,0,1,.39-.61,1.87,1.87,0,0,1,.6-.16,11.54,11.54,0,0,1,1.92,0,1.61,1.61,0,0,1,.59.16.94.94,0,0,1,.29.26.65.65,0,0,1,.09.35v3.1a15.47,15.47,0,0,1,3.85-3.24,7.68,7.68,0,0,1,3.77-1,9.12,9.12,0,0,1,2.61.34,7,7,0,0,1,2.06.95,6.35,6.35,0,0,1,1.51,1.46,8.19,8.19,0,0,1,1,1.89,24.71,24.71,0,0,1,2.23-2.17,14.13,14.13,0,0,1,2-1.43,8.24,8.24,0,0,1,1.91-.79,7,7,0,0,1,1.86-.25,8.26,8.26,0,0,1,3.81.79,7,7,0,0,1,2.49,2.13,8.67,8.67,0,0,1,1.35,3.11,17.08,17.08,0,0,1,.41,3.77Z" fill="#000000"/><path d="M381.11,170.8a21.08,21.08,0,0,1-.66,5.49,12.34,12.34,0,0,1-2,4.16,8.57,8.57,0,0,1-3.17,2.63,9.67,9.67,0,0,1-4.3.91,9,9,0,0,1-2.07-.22,7.52,7.52,0,0,1-1.87-.72,11.4,11.4,0,0,1-1.82-1.25,22.34,22.34,0,0,1-1.93-1.82v2.86a.6.6,0,0,1-.45.62,2.26,2.26,0,0,1-.57.14,5.9,5.9,0,0,1-.91.05,5.57,5.57,0,0,1-.88-.05,2.42,2.42,0,0,1-.6-.14.5.5,0,0,1-.32-.25.84.84,0,0,1-.08-.37V148a.64.64,0,0,1,.43-.62,2.74,2.74,0,0,1,.67-.16,9.76,9.76,0,0,1,1,0,10.31,10.31,0,0,1,1.08,0,2.47,2.47,0,0,1,.64.16.72.72,0,0,1,.34.26.61.61,0,0,1,.1.36v14.06a16,16,0,0,1,2-1.8,12.34,12.34,0,0,1,1.91-1.19,9,9,0,0,1,1.88-.66,9.1,9.1,0,0,1,2-.21,8.77,8.77,0,0,1,4.37,1,8.34,8.34,0,0,1,2.94,2.72,11.92,11.92,0,0,1,1.66,4A21.72,21.72,0,0,1,381.11,170.8Zm-4.46.5a22.25,22.25,0,0,0-.27-3.5,9.73,9.73,0,0,0-1-3,6,6,0,0,0-1.81-2.11,4.83,4.83,0,0,0-2.81-.79,5.7,5.7,0,0,0-3.3,1,12.6,12.6,0,0,0-1.75,1.4,22.31,22.31,0,0,0-1.93,2.17v9.36a18.46,18.46,0,0,0,3.41,3.3,5.91,5.91,0,0,0,3.39,1.13,4.86,4.86,0,0,0,2.78-.78,6.05,6.05,0,0,0,1.88-2.07,10.2,10.2,0,0,0,1.05-2.9A16,16,0,0,0,376.65,171.3Z" fill="#000000"/><path d="M412.37,182.82a.66.66,0,0,1-.1.37.83.83,0,0,1-.37.25,5.11,5.11,0,0,1-.68.15,9.75,9.75,0,0,1-2.16,0,4.77,4.77,0,0,1-.68-.15.79.79,0,0,1-.36-.25.67.67,0,0,1-.11-.37v-15H392.56v15a.76.76,0,0,1-.1.37.87.87,0,0,1-.38.25,4.77,4.77,0,0,1-.68.15,8.17,8.17,0,0,1-1.09.06,7.89,7.89,0,0,1-1.06-.06,4.72,4.72,0,0,1-.71-.15.79.79,0,0,1-.36-.25.66.66,0,0,1-.1-.37V150.44a.66.66,0,0,1,.1-.37.79.79,0,0,1,.36-.25,4.72,4.72,0,0,1,.71-.15,7.71,7.71,0,0,1,1.06-.07,8,8,0,0,1,1.09.07,4.77,4.77,0,0,1,.68.15.87.87,0,0,1,.38.25.76.76,0,0,1,.1.37v13.5h15.35v-13.5a.67.67,0,0,1,.11-.37.79.79,0,0,1,.36-.25,4.77,4.77,0,0,1,.68-.15,8.36,8.36,0,0,1,2.16,0,5.11,5.11,0,0,1,.68.15.83.83,0,0,1,.37.25.66.66,0,0,1,.1.37Z" fill="#000000"/><path d="M49.86,85.38a.77.77,0,0,1-.14.47,1,1,0,0,1-.45.33,2.76,2.76,0,0,1-.87.21,11.23,11.23,0,0,1-1.43.07,10.86,10.86,0,0,1-1.39-.07,2.91,2.91,0,0,1-.88-.21.94.94,0,0,1-.46-.33.84.84,0,0,1-.12-.47V38.94a1,1,0,0,1,.12-.48.91.91,0,0,1,.46-.35,3.67,3.67,0,0,1,.88-.21A10.86,10.86,0,0,1,47,37.83a11.23,11.23,0,0,1,1.43.07,3.46,3.46,0,0,1,.87.21,1,1,0,0,1,.45.35.87.87,0,0,1,.14.48Z" fill="#000000"/><path d="M87.16,68.39a2.39,2.39,0,0,1-.68,1.92,2.34,2.34,0,0,1-1.56.58H64.32a19.23,19.23,0,0,0,.52,4.69,9,9,0,0,0,1.75,3.58,7.83,7.83,0,0,0,3.18,2.3,12.71,12.71,0,0,0,4.78.8,19.21,19.21,0,0,0,4-.37,21.87,21.87,0,0,0,3-.82c.85-.3,1.54-.57,2.09-.81a3.34,3.34,0,0,1,1.24-.37.81.81,0,0,1,.44.12.85.85,0,0,1,.3.37,2.38,2.38,0,0,1,.15.68,7.89,7.89,0,0,1,.06,1.06c0,.3,0,.56,0,.78a4.34,4.34,0,0,1-.09.59,1.47,1.47,0,0,1-.17.47,1.88,1.88,0,0,1-.31.4A5.32,5.32,0,0,1,84.1,85a17,17,0,0,1-2.43.86c-1,.27-2.16.52-3.46.74a25.33,25.33,0,0,1-4.19.33,19.53,19.53,0,0,1-6.76-1.07,12.58,12.58,0,0,1-4.89-3.2,13.73,13.73,0,0,1-3-5.32,24.84,24.84,0,0,1-1-7.44,23.33,23.33,0,0,1,1.05-7.25,15.34,15.34,0,0,1,3-5.46,13.17,13.17,0,0,1,4.75-3.44,15.54,15.54,0,0,1,6.22-1.2,15,15,0,0,1,6.28,1.19,11.69,11.69,0,0,1,4.25,3.18,12.59,12.59,0,0,1,2.45,4.69,20.23,20.23,0,0,1,.79,5.75Zm-5.77-1.71a10.51,10.51,0,0,0-2-7.09A7.68,7.68,0,0,0,73.1,57a8.18,8.18,0,0,0-3.74.8,8,8,0,0,0-2.7,2.12A9.85,9.85,0,0,0,65,63a12.4,12.4,0,0,0-.66,3.66Z" fill="#000000"/><path d="M125,69.39a23.48,23.48,0,0,1-1,7A15.34,15.34,0,0,1,121,82a13.66,13.66,0,0,1-5,3.63,17.4,17.4,0,0,1-7,1.3,18.17,18.17,0,0,1-6.73-1.14,12.41,12.41,0,0,1-4.78-3.34,14.24,14.24,0,0,1-2.85-5.32A24.84,24.84,0,0,1,93.69,70a23.81,23.81,0,0,1,1-7,15.34,15.34,0,0,1,3-5.54,13.53,13.53,0,0,1,5-3.62,17.51,17.51,0,0,1,7-1.29,18.2,18.2,0,0,1,6.73,1.15A12.41,12.41,0,0,1,121.16,57,14.26,14.26,0,0,1,124,62.34,24,24,0,0,1,125,69.39Zm-6,.39a23.68,23.68,0,0,0-.47-4.8A11.68,11.68,0,0,0,117,61a7.76,7.76,0,0,0-3-2.7,9.76,9.76,0,0,0-4.63-1,10,10,0,0,0-4.4.9,8.09,8.09,0,0,0-3,2.56,11.22,11.22,0,0,0-1.77,3.91,19.69,19.69,0,0,0-.58,4.94,23.28,23.28,0,0,0,.47,4.83,11.12,11.12,0,0,0,1.58,3.94,7.9,7.9,0,0,0,3,2.68,9.79,9.79,0,0,0,4.63,1,10,10,0,0,0,4.39-.9,8.1,8.1,0,0,0,3-2.54,11.09,11.09,0,0,0,1.75-3.89A20.88,20.88,0,0,0,119,69.78Z" fill="#000000"/><path d="M179.83,85.38a.77.77,0,0,1-.13.47,1.12,1.12,0,0,1-.46.33,2.76,2.76,0,0,1-.87.21,10.75,10.75,0,0,1-1.39.07,11.06,11.06,0,0,1-1.42-.07,3,3,0,0,1-.89-.21,1,1,0,0,1-.47-.33.77.77,0,0,1-.14-.47v-19a16.91,16.91,0,0,0-.35-3.62,8.26,8.26,0,0,0-1.11-2.81,5.24,5.24,0,0,0-1.94-1.81,5.86,5.86,0,0,0-2.79-.62,6.61,6.61,0,0,0-4,1.52,27.69,27.69,0,0,0-4.39,4.49V85.38a.77.77,0,0,1-.14.47,1,1,0,0,1-.47.33,3,3,0,0,1-.89.21,13.64,13.64,0,0,1-2.76,0,3.06,3.06,0,0,1-.91-.21.91.91,0,0,1-.45-.33.84.84,0,0,1-.12-.47v-19a16.22,16.22,0,0,0-.38-3.62,9,9,0,0,0-1.15-2.81,5.22,5.22,0,0,0-1.93-1.81,5.68,5.68,0,0,0-2.76-.62,6.66,6.66,0,0,0-4,1.52,26.5,26.5,0,0,0-4.38,4.49V85.38a.71.71,0,0,1-.14.47,1,1,0,0,1-.45.33,2.76,2.76,0,0,1-.87.21,11.12,11.12,0,0,1-1.43.07,10.69,10.69,0,0,1-1.38-.07,2.91,2.91,0,0,1-.89-.21.91.91,0,0,1-.45-.33.84.84,0,0,1-.12-.47V54.1a.79.79,0,0,1,.52-.82,2.5,2.5,0,0,1,.8-.21c.32,0,.75,0,1.28,0s.94,0,1.27,0a2.17,2.17,0,0,1,.78.21,1.08,1.08,0,0,1,.4.35.86.86,0,0,1,.12.47v4.13a20.64,20.64,0,0,1,5.13-4.32,10.26,10.26,0,0,1,5-1.38,12.14,12.14,0,0,1,3.49.46A9.51,9.51,0,0,1,155,54.25a8.47,8.47,0,0,1,2,2,11.59,11.59,0,0,1,1.4,2.52,32.63,32.63,0,0,1,3-2.88,17.19,17.19,0,0,1,2.71-1.91,10.88,10.88,0,0,1,2.54-1.07,9.55,9.55,0,0,1,2.48-.33,11.07,11.07,0,0,1,5.08,1.06,9.37,9.37,0,0,1,3.32,2.84,11.59,11.59,0,0,1,1.81,4.15,22.69,22.69,0,0,1,.53,5Z" fill="#000000"/><path d="M213.86,85.42a.72.72,0,0,1-.27.62,2,2,0,0,1-.77.32,7.27,7.27,0,0,1-1.42.1,8,8,0,0,1-1.45-.1,1.68,1.68,0,0,1-.78-.32.76.76,0,0,1-.24-.62V82.29a15.47,15.47,0,0,1-4.57,3.41A12.14,12.14,0,0,1,199,86.91a14.47,14.47,0,0,1-4.46-.64,9.67,9.67,0,0,1-3.41-1.86,8.32,8.32,0,0,1-2.19-3,9.92,9.92,0,0,1-.78-4,9.43,9.43,0,0,1,1.07-4.59,8.86,8.86,0,0,1,3.1-3.23,15.07,15.07,0,0,1,4.93-1.93,30.62,30.62,0,0,1,6.57-.64h4.31V64.56a12,12,0,0,0-.38-3.2,5.47,5.47,0,0,0-1.23-2.31,5.36,5.36,0,0,0-2.21-1.39,10.37,10.37,0,0,0-3.34-.47,13.09,13.09,0,0,0-3.8.51,19.2,19.2,0,0,0-3,1.11c-.84.4-1.55.78-2.12,1.11a2.86,2.86,0,0,1-1.27.5.9.9,0,0,1-.49-.13,1.52,1.52,0,0,1-.36-.42,2.12,2.12,0,0,1-.22-.71,5.69,5.69,0,0,1-.07-1,6.12,6.12,0,0,1,.12-1.37,2,2,0,0,1,.59-1A7.62,7.62,0,0,1,192,54.81a16.38,16.38,0,0,1,2.64-1.11,23.09,23.09,0,0,1,3.26-.84,19.65,19.65,0,0,1,3.59-.33,18.78,18.78,0,0,1,5.73.77,9.27,9.27,0,0,1,3.82,2.24,8.77,8.77,0,0,1,2.13,3.67,17.77,17.77,0,0,1,.65,5.11Zm-5.7-14.29h-4.9a18.91,18.91,0,0,0-4.1.4,8.47,8.47,0,0,0-2.88,1.18,4.86,4.86,0,0,0-1.69,1.88,5.63,5.63,0,0,0-.54,2.52A5.08,5.08,0,0,0,195.6,81a6.09,6.09,0,0,0,4.32,1.44,8,8,0,0,0,4.19-1.15,17.66,17.66,0,0,0,4-3.51Z" fill="#000000"/><path d="M247.45,84.72a1.81,1.81,0,0,1,.27.82.62.62,0,0,1-.33.54,2.52,2.52,0,0,1-1,.3,16.22,16.22,0,0,1-1.75.08c-.69,0-1.25,0-1.65,0a4.26,4.26,0,0,1-1-.17,1.38,1.38,0,0,1-.55-.32,1.76,1.76,0,0,1-.33-.43l-7.51-12.41-7.47,12.41a2.44,2.44,0,0,1-.33.43,1.42,1.42,0,0,1-.56.32,4.07,4.07,0,0,1-1,.17c-.39,0-.91,0-1.56,0a14.62,14.62,0,0,1-1.65-.08,2.2,2.2,0,0,1-.94-.3.59.59,0,0,1-.28-.54,1.79,1.79,0,0,1,.33-.82l9.74-15.26-9.22-14.7a2,2,0,0,1-.29-.82.61.61,0,0,1,.31-.55,2.16,2.16,0,0,1,1-.3,17.21,17.21,0,0,1,1.79-.07c.67,0,1.21,0,1.62,0a5.28,5.28,0,0,1,.95.16,1.16,1.16,0,0,1,.52.28,1.78,1.78,0,0,1,.32.42l7.12,11.64,7.23-11.64a2.37,2.37,0,0,1,.32-.39,1.45,1.45,0,0,1,.46-.29,3.34,3.34,0,0,1,.84-.18c.36,0,.85,0,1.48,0a15,15,0,0,1,1.65.07,2.42,2.42,0,0,1,1,.26.52.52,0,0,1,.28.54,2.21,2.21,0,0,1-.35.87l-9.14,14.53Z" fill="#000000"/></svg>